<svg width="103" height="40" viewBox="0 0 103 40" xmlns="http://www.w3.org/2000/svg">
    <g fill="none" fill-rule="evenodd">
        <path d="m64.91 9.02 1.157 1.785-5.674 5.128 12.147-.001.606-.006c.405-.008.81-.023 1.214-.046.505-.028.944-.078 1.315-.15l.215-.044h.248l.173.165c.289.288.583.643.882 1.065.358.506.661 1.066.91 1.682a5.16 5.16 0 0 1 .372 1.948c0 .56-.09 1.083-.27 1.569-.178.485-.482.916-.909 1.292-.427.376-.993.666-1.696.871-.615.18-1.362.28-2.241.303l-.385.005H38.316l-.289-.007c-.658-.03-1.213-.168-1.665-.414a3.578 3.578 0 0 1-1.125-.946l-.147-.202-.242-.371a11.082 11.082 0 0 1-.444-.785l-.203-.413-1.494-3.323-.199.05a8.43 8.43 0 0 0-.324.094 3.317 3.317 0 0 0-1.106.575c-.303.246-.455.56-.455.943 0 .314.097.656.29 1.025.193.37.434.742.723 1.118l.859 1.118c.282.369.52.721.713 1.056.193.335.29.64.29.913 0 .875-.28 1.695-.838 2.46-.558.766-1.348 1.378-2.368 1.836-1.02.458-2.22.687-3.598.687-.979 0-1.82-.075-2.523-.226l-.496-.112c-.388-.093-.71-.184-.97-.275L22 29.118l.703-2.4h.186l.89.277c.372.117.837.22 1.395.308a12.42 12.42 0 0 0 1.934.133c.956 0 1.8-.148 2.532-.445l.27-.118.29-.146c.28-.15.538-.312.772-.488l.226-.18.145-.129-.115-.147-.423-.515-.223-.262a45.658 45.658 0 0 1-1.313-1.59 9.419 9.419 0 0 1-1.045-1.63c-.275-.553-.413-1.103-.413-1.65 0-.793.193-1.48.579-2.061a4.936 4.936 0 0 1 1.51-1.456c.62-.39 1.295-.711 2.026-.964.548-.19 1.084-.35 1.61-.483l.52-.122.269.102 1.757 4.122.123.274c.24.533.458.979.653 1.336.227.417.486.725.775.923.248.17.552.267.912.291l.184.006h2.56l-.035-.158a4.823 4.823 0 0 1-.033-.18c-.05-.3-.08-.643-.09-1.027l-.003-.296V14.21l2.71-.328h.185v8.223h5.393l-.035-.158a5.087 5.087 0 0 1-.033-.18c-.05-.3-.08-.643-.09-1.027l-.003-.296V14.21l2.709-.328h.186l-.001 8.223H73.16l.261-.003c.76-.022 1.315-.14 1.662-.355.386-.24.58-.64.58-1.2 0-.387-.087-.796-.259-1.228l-.093-.218-.123-.25-.135-.239-.145-.226-.133-.178-.374.062c-.359.055-.707.093-1.044.113-.254.016-.536.025-.848.029l-13.907.002-.215-.009a2.134 2.134 0 0 1-1.119-.411c-.341-.253-.551-.696-.63-1.33l-.021-.219 8.085-7.423h.207zM48.16 26.617c.385 0 .716.127.992.38.275.253.413.59.413 1.015 0 .437-.134.782-.403 1.035-.269.253-.61.38-1.024.38-.386 0-.717-.127-.992-.38-.276-.253-.414-.598-.414-1.035 0-.424.138-.762.414-1.016.275-.252.613-.379 1.013-.379zm3.287-.39c.4 0 .738.123 1.013.37.276.246.414.588.414 1.025 0 .438-.138.78-.414 1.025-.275.246-.613.37-1.013.37a1.44 1.44 0 0 1-.993-.37c-.275-.246-.413-.587-.413-1.025 0-.437.138-.78.413-1.025.276-.247.607-.37.993-.37zM25.164 22.74c.4 0 .737.123 1.013.37.276.245.414.587.414 1.025 0 .437-.138.782-.414 1.035-.276.253-.613.38-1.013.38-.386 0-.717-.127-.993-.38-.275-.253-.413-.598-.413-1.035 0-.438.138-.78.413-1.026a1.44 1.44 0 0 1 .993-.369zm.02-3.445c.4 0 .735.126 1.004.38.268.252.403.597.403 1.035 0 .424-.135.762-.403 1.015-.27.253-.604.38-1.003.38-.4 0-.738-.127-1.014-.38-.275-.253-.413-.591-.413-1.015 0-.438.138-.783.413-1.036.276-.253.614-.38 1.014-.38zm17.35-9.905c.4 0 .734.123 1.003.369.27.246.404.588.404 1.025 0 .438-.135.78-.404 1.026s-.603.369-1.003.369c-.4 0-.734-.123-1.003-.37-.268-.245-.403-.587-.403-1.025 0-.437.135-.78.403-1.025.27-.246.604-.37 1.003-.37zm58.729 12.714-.145-.007c-.349-.033-.78-.185-1.292-.454-.586-.308-1.3-.81-2.14-1.507-.842-.698-1.838-1.644-2.989-2.84l-.651-.689-.34-.366-.707-.778-.743-.838-.78-.898-.78-.912h-.186l-1.758 2.091.487.6a61.138 61.138 0 0 0 2.367 2.722 31.603 31.603 0 0 0 2.647 2.574c.525.449 1.027.83 1.504 1.142l.22.14H87.16l-.022.02h-2.833l.001-9.905.007-.761.02-.792.025-.56c.016-.294.044-.55.083-.767l.03-.155-.02-.164-3.04.308v15.278h20.762l.827-2.297v-.205l-1.737.02z" fill="#004492"/>
        <path d="M92 40H0l11.581-12.083V10.74C11.581 4.821 16.437 0 22.403 0H92v10.365h-2.994v-7.4H22.403c-4.316 0-7.828 3.487-7.828 7.776v18.362l-7.609 7.931h82.04V28.07H92V40z" fill="#FACCB9"/>
    </g>
</svg>
