<svg width="1248" height="381" viewBox="0 0 1248 381" fill="none" xmlns="http://www.w3.org/2000/svg">
<path d="M0 40C0 17.9086 17.9086 0 40 0H340.32C362.411 0 380.32 17.9086 380.32 40V340.32C380.32 362.411 362.411 380.32 340.32 380.32H40C17.9086 380.32 0 362.411 0 340.32V40Z" fill="url(#paint0_linear_203_101)"/>
<path fill-rule="evenodd" clip-rule="evenodd" d="M277.44 287.315C285.35 280.034 291.126 271.353 294.766 261.272C300.472 245.591 300.087 230.049 293.646 214.752C286.961 198.966 275.689 188.185 259.833 182.444C247.617 178.033 234.98 178.314 221.994 183.389C218.213 184.859 212.053 188.08 203.652 193.26C162.243 218.708 123.389 202.186 107.497 169.003C100.321 153.846 95.9807 134.699 103.296 114.922L82.0492 104.946L80.299 109.601C72.6682 131.409 73.1583 154.756 80.6841 174.883C96.294 216.686 126.965 227.305 136.975 230.77C137.559 230.973 138.074 231.151 138.51 231.309C160.527 239.255 185.17 235.089 212.473 218.673C221.889 213.072 227.209 209.992 228.4 209.537C236.59 206.001 244.221 205.476 251.327 208.067C256.857 210.062 261.618 213.352 265.608 217.938C269.564 222.488 272.014 228.124 273.064 234.774C274.079 241.495 273.484 247.796 271.349 253.641C269.494 258.857 266.098 263.722 261.198 268.203C251.887 276.884 238.621 278.529 221.469 273.173L212.508 297.851L212.263 298.096C212.298 298.131 212.368 298.131 212.403 298.131L212.368 298.271H212.788C226.964 302.822 239.181 304.082 249.472 301.911C259.868 299.741 269.179 294.876 277.44 287.315ZM258.328 174.603C267.359 178.103 278.7 182.969 284.965 193.12L305.093 183.319C299.912 174.113 295.116 167.532 290.741 163.612C284.615 158.151 277.16 153.671 268.269 150.206C246.496 141.77 221.854 145.2 194.341 160.567C184.785 165.817 179.429 168.688 178.274 169.143C170.118 172.398 162.453 172.678 155.382 169.948C149.921 167.812 145.266 164.452 141.415 159.832C137.53 155.246 135.115 149.611 134.24 142.995C133.4 136.379 134.065 130.218 136.27 124.478C138.265 119.367 141.73 114.677 146.701 110.406C156.152 102.111 169.348 100.85 186.36 106.591L195.706 82.5435L195.986 82.2985C195.916 82.2985 195.881 82.2985 195.846 82.2635L195.881 82.1235H195.496C181.425 77.258 169.243 75.7178 158.952 77.538C148.591 79.3582 139.21 83.9087 130.844 91.1544C122.863 98.0501 116.948 106.416 113.132 116.252C107.182 131.514 107.322 146.845 113.483 162.142C119.888 177.893 130.914 188.815 146.596 194.905C158.707 199.631 171.274 199.666 184.33 195.01C188.145 193.68 194.306 190.565 202.777 185.804C214.188 179.294 223.324 175.093 230.15 173.238C239.881 170.648 249.332 171.103 258.328 174.603Z" fill="white"/>
<path d="M521.46 122.041L505.877 117.149C497.875 114.589 494.068 109.533 493.907 101.194C493.778 96.0066 495.488 91.9357 499.263 88.3572C502.973 84.8443 507.038 83.1371 511.684 83.1371C512.071 83.1371 512.426 83.1371 512.781 83.17C517.62 83.4326 521.556 85.3368 524.815 88.9481C528.299 92.6251 529.88 96.8274 529.751 101.818L529.622 106.151H533.881H547.431H551.593V101.949C551.593 91.1477 547.786 81.7254 540.366 73.9775C532.913 66.2295 523.75 62.1914 513.007 61.9944H512.265C501.941 61.9944 492.746 65.737 484.906 73.1567C476.84 80.5764 472.839 89.9002 473.065 100.833C473.259 118.233 482.938 131.693 499.069 136.782L512.813 141.017C526.493 145.384 533.332 152.442 533.591 162.619C533.752 168.824 531.687 173.946 527.364 178.214C523.008 182.482 518.104 184.517 512.329 184.517H511.749C505.812 184.386 500.94 182.186 496.972 177.853C492.746 173.256 490.745 168.168 490.874 162.291L490.971 157.99H486.777H473.194H469L469.065 162.258C469.258 174.701 473.517 185.141 481.712 193.283C490.003 201.523 500.134 205.726 511.845 205.726C523.589 205.726 533.784 201.523 542.076 193.283C550.496 184.681 554.691 174.438 554.497 162.784C554.303 142.626 543.205 128.903 521.46 122.041Z" fill="#414141"/>
<path d="M613.345 96.2368C612.635 96.2368 611.861 96.2696 611.119 96.3353C602.085 96.7292 594.181 99.7496 587.534 105.331V67.8713V63.6362H583.373H570.5H566.37V67.8713V199.094V203.297H570.5H583.727H587.857V199.094V141.576C587.857 134.32 590.115 128.673 594.761 124.208C599.504 119.514 605.247 117.183 612.409 117.018H612.99C619.539 117.018 625.25 119.546 630.122 124.471C635.284 129.691 637.8 135.633 637.8 142.593V199.127V203.329H641.898H654.609H658.739V199.127V143.972C658.739 130.413 653.996 118.824 644.608 109.5C635.929 100.702 625.379 96.2368 613.345 96.2368Z" fill="#414141"/>
<path d="M759.786 166.231C753.947 178.05 744.752 183.894 731.782 184.058H731.105C722.813 184.058 715.715 181.333 709.295 175.719C704.197 171.221 700.842 165.607 699.261 158.943H784.145V147.748C784.145 134.615 779.241 122.632 769.465 112.192C759.431 101.621 747.365 95.7771 733.589 94.8579C732.395 94.7922 731.266 94.7594 730.169 94.7594C716.36 94.7594 704.004 100.144 693.454 110.715C682.258 121.877 676.774 135.535 677.161 151.26C677.322 165.903 682.936 178.871 693.744 189.738C704.326 200.145 716.748 205.398 730.621 205.398H731.363C742.558 205.201 752.85 201.786 761.98 195.253C771.143 188.687 777.725 179.593 781.532 168.332L782.274 166.198H759.786V166.231ZM709.843 123.814C715.876 118.923 722.813 116.427 730.588 116.427H731.298C739.59 116.592 746.429 119.087 752.269 124.077C756.818 128.017 760.044 132.777 762.045 138.588H699.777C701.777 132.58 705.133 127.688 709.843 123.814Z" fill="#414141"/>
<path d="M823.442 182.744L869.32 116.788L870.094 115.672V114.326V102.08V97.8451H865.965H801.213H797.083V102.08V114.162V118.364H801.213H842.348L796.018 184.55L795.244 185.633V187.012V199.094V203.329H799.406H869.804H873.934V199.094V187.012V182.744H869.804H823.442Z" fill="#414141"/>
<path d="M889.645 63.6362H885.483V67.8713V199.094V203.329H889.645H902.357H906.519V199.094V67.8713V63.6362H902.357H889.645Z" fill="#414141"/>
<path d="M970.432 95.0876C969.722 95.0548 969.045 95.0548 968.367 95.0548C954.333 95.0548 942.04 100.406 931.845 110.978C921.198 121.812 915.778 135.108 915.778 150.407C915.778 165.148 920.779 177.984 930.652 188.523C940.589 199.193 952.913 204.774 967.335 205.168C967.98 205.201 968.69 205.201 969.367 205.201C983.305 205.201 995.533 199.915 1005.82 189.442C1016.63 178.51 1022.08 165.279 1022.08 150.21C1022.08 135.633 1017.05 122.796 1007.08 112.061C997.242 101.391 984.918 95.6458 970.432 95.0876ZM969.529 183.992C968.948 183.992 968.399 183.992 967.754 183.959C959.011 183.664 951.784 180.184 945.686 173.388C939.653 166.625 936.749 158.779 936.911 149.422C937.072 140.098 940.266 132.416 946.557 125.981C952.978 119.481 960.269 116.296 968.916 116.296H969.529C978.175 116.296 985.273 119.448 991.338 125.883C997.597 132.547 1000.76 140.197 1001.05 149.323C1001.21 158.91 998.017 167.085 991.338 174.176C985.241 180.775 978.143 183.992 969.529 183.992Z" fill="#414141"/>
<path d="M1080.58 96.2692C1067.35 96.2692 1056.19 100.898 1047.35 110.124C1038.57 119.218 1034.09 130.774 1034.09 144.398V199.718V203.92H1038.25H1051.12H1055.25V199.718V143.02C1055.25 135.994 1057.74 130.052 1062.77 124.897C1067.7 119.874 1073.71 117.313 1080.55 117.313C1087.35 117.313 1092.9 119.743 1098 124.897C1103.16 130.15 1105.65 136.092 1105.65 143.02V199.718V203.92H1109.81H1122.68H1126.81V199.718V144.398C1126.81 130.807 1122.36 119.25 1113.58 110.124C1104.81 100.931 1093.68 96.2692 1080.58 96.2692Z" fill="#414141"/>
<path d="M1231.76 110.583C1221.31 100.012 1208.79 94.595 1194.56 94.595H1193.11C1178.63 95.1859 1166.27 100.8 1156.43 111.404C1146.52 121.975 1141.59 134.812 1141.59 149.553C1141.59 164.753 1146.94 178.083 1157.59 189.081C1167.91 199.554 1180.17 204.872 1194.14 204.872C1194.79 204.872 1195.5 204.839 1196.18 204.839C1207.89 204.413 1218.24 200.539 1226.99 193.349C1226.92 196.73 1226.63 210.158 1226.5 214.163C1225.5 220.073 1222.63 225.325 1217.95 229.725C1211.89 235.601 1204.86 238.49 1196.47 238.655C1189.43 238.655 1183.21 236.553 1177.43 232.154C1171.53 227.821 1167.78 222.83 1166.2 217.216L1165.37 214.13H1162.2H1149.85H1144.39L1145.85 219.482C1148.78 230.316 1154.59 239.278 1163.01 246.009C1171.72 253.067 1182.43 256.908 1194.85 257.434C1195.69 257.466 1196.43 257.499 1197.21 257.499C1209.76 257.499 1221.24 253.363 1231.38 245.155C1240.73 237.538 1246.12 227.722 1247.28 216.002C1247.31 215.706 1247.83 194.826 1247.83 194.531V149.717C1248.09 134.517 1242.67 121.352 1231.76 110.583ZM1226.76 150.636C1226.57 159.698 1223.47 167.347 1217.18 174.044C1211.11 180.512 1203.95 183.631 1195.24 183.631C1186.27 183.631 1178.82 180.479 1172.43 173.979C1165.95 167.413 1162.75 159.73 1162.59 150.505C1162.43 141.378 1165.37 133.597 1171.56 126.736C1177.69 119.842 1184.95 116.296 1193.63 115.836C1194.18 115.803 1194.72 115.771 1195.27 115.771C1203.82 115.771 1210.99 119.021 1217.15 125.751C1223.92 132.908 1227.05 141.017 1226.76 150.636Z" fill="#414141"/>
<path d="M619.378 290.363V306.843H612.829V289.936L599.084 261.078H606.311L616.216 283.074L626.089 261.078H633.316L619.378 290.363Z" fill="#919395"/>
<path d="M629.993 289.574C629.993 287.112 630.38 284.847 631.186 282.713C631.993 280.579 633.187 278.675 634.768 276.968C636.478 275.096 638.413 273.652 640.51 272.667C642.672 271.682 644.898 271.157 647.221 271.157C649.673 271.157 651.964 271.616 654.061 272.503C656.19 273.422 658.126 274.735 659.836 276.508C661.481 278.248 662.772 280.185 663.675 282.352C664.579 284.551 665.03 286.817 665.03 289.115C665.03 291.479 664.611 293.777 663.772 296.042C662.933 298.275 661.772 300.244 660.255 301.919C658.513 303.856 656.61 305.3 654.448 306.318C652.286 307.303 649.996 307.795 647.576 307.795C645.092 307.795 642.769 307.336 640.672 306.449C638.607 305.563 636.703 304.217 635.026 302.411C633.445 300.704 632.219 298.734 631.315 296.469C630.444 294.236 629.993 291.905 629.993 289.574ZM636.316 289.509C636.316 292.956 637.349 295.845 639.543 298.176C641.704 300.474 644.382 301.623 647.576 301.623C650.738 301.623 653.383 300.474 655.513 298.176C657.642 295.845 658.707 292.956 658.707 289.476C658.707 285.963 657.674 283.074 655.513 280.809C653.383 278.511 650.706 277.394 647.544 277.394C644.35 277.394 641.736 278.543 639.575 280.874C637.349 283.14 636.316 286.029 636.316 289.509Z" fill="#919395"/>
<path d="M698.584 306.843H692.744V302.969C691.518 304.545 690.163 305.727 688.647 306.482C687.131 307.237 685.453 307.631 683.582 307.631C679.291 307.631 676 306.285 673.645 303.56C671.289 300.868 670.096 297.06 670.096 292.135V272.24H676.226V290.33C676.226 294.072 676.871 296.863 678.161 298.734C679.452 300.606 681.42 301.525 684.001 301.525C685.582 301.525 687.034 301.164 688.26 300.376C689.518 299.588 690.518 298.537 691.26 297.093C691.744 296.206 692.035 295.156 692.228 293.941C692.422 292.726 692.551 290.789 692.551 288.064V272.207H698.584V306.843Z" fill="#919395"/>
<path d="M735.912 306.843H729.363V267.25H720.974V261.078H744.301V267.25H735.912V306.843Z" fill="#919395"/>
<path d="M772.37 306.844V302.609C770.821 304.283 769.079 305.53 767.143 306.351C765.207 307.205 763.142 307.632 760.981 307.632C755.851 307.632 751.625 305.892 748.237 302.444C744.882 298.964 743.172 294.631 743.172 289.411C743.172 286.981 743.591 284.683 744.43 282.484C745.301 280.317 746.495 278.413 748.076 276.771C749.786 274.933 751.657 273.586 753.689 272.7C755.722 271.814 758.045 271.387 760.626 271.387C762.949 271.387 765.078 271.814 767.046 272.667C769.014 273.488 770.789 274.768 772.402 276.476V272.273H778.596V306.844H772.37ZM749.527 289.312C749.527 292.792 750.624 295.747 752.915 298.111C755.206 300.475 757.98 301.656 761.271 301.656C764.272 301.656 766.917 300.475 769.24 298.111C771.531 295.747 772.66 292.956 772.66 289.772C772.66 286.39 771.563 283.468 769.272 281.039C766.982 278.642 764.304 277.428 761.174 277.428C757.916 277.428 755.206 278.577 752.915 280.875C750.624 283.173 749.527 285.996 749.527 289.312Z" fill="#919395"/>
<path d="M791.727 261.078H785.629V306.843H791.727V261.078Z" fill="#919395"/>
<path d="M798.986 306.843V261.078H805.052V288.294L817.182 272.24H824.28L811.827 288.655L826.603 306.843H818.731L805.052 289.246V306.843H798.986Z" fill="#919395"/>
<path d="M837.702 299.095H831.507V306.811H837.702V299.095Z" fill="#919395"/>
<path d="M855.801 299.095H849.606V306.811H855.801V299.095Z" fill="#919395"/>
<path d="M878.901 261.078H885.548L895.323 296.338L904.066 261.078H908.97L917.681 296.338L927.425 261.078H934.039L920.456 306.843H914.584L906.486 272.667L898.356 306.843H892.516L878.901 261.078Z" fill="#919395"/>
<path d="M939.621 291.84C940.169 294.729 941.428 297.06 943.493 298.866C945.525 300.671 947.977 301.558 950.784 301.558C952.784 301.558 954.623 301.065 956.301 300.08C957.946 299.095 959.302 297.717 960.269 295.911H967.141C965.56 299.752 963.367 302.674 960.592 304.709C957.753 306.745 954.494 307.763 950.784 307.763C948.268 307.763 945.977 307.303 943.912 306.417C941.783 305.497 939.911 304.184 938.234 302.346C936.653 300.671 935.427 298.669 934.523 296.436C933.62 294.204 933.201 291.873 933.201 289.542C933.201 287.112 933.588 284.847 934.394 282.713C935.201 280.612 936.395 278.675 938.008 276.935C939.686 275.031 941.621 273.619 943.718 272.667C945.848 271.715 948.171 271.255 950.687 271.255C953.655 271.255 956.43 271.978 958.979 273.356C961.56 274.801 963.657 276.771 965.335 279.299C966.303 280.875 967.045 282.582 967.529 284.486C968.013 286.324 968.206 288.491 968.206 290.888V291.873H939.621V291.84ZM961.528 286.259C960.753 283.402 959.463 281.203 957.592 279.627C955.688 278.084 953.462 277.296 950.849 277.296C948.171 277.296 945.88 278.084 943.88 279.693C941.879 281.269 940.557 283.468 939.782 286.226H961.528V286.259Z" fill="#919395"/>
<path d="M998.436 306.843H991.951V261.078H998.436V280.481H1016.79V261.078H1023.31V306.843H1016.79V286.981H998.436V306.843Z" fill="#919395"/>
<path d="M1035.41 291.84C1035.93 294.729 1037.22 297.06 1039.25 298.866C1041.28 300.671 1043.73 301.558 1046.54 301.558C1048.57 301.558 1050.41 301.065 1052.06 300.08C1053.7 299.095 1055.06 297.717 1056.06 295.911H1062.93C1061.38 299.752 1059.19 302.674 1056.38 304.709C1053.57 306.745 1050.32 307.763 1046.57 307.763C1044.06 307.763 1041.77 307.303 1039.7 306.417C1037.6 305.497 1035.73 304.184 1034.05 302.346C1032.47 300.671 1031.25 298.669 1030.34 296.436C1029.44 294.204 1028.99 291.873 1028.99 289.542C1028.99 287.112 1029.38 284.847 1030.22 282.713C1031.02 280.612 1032.18 278.675 1033.8 276.935C1035.51 275.031 1037.41 273.619 1039.54 272.667C1041.67 271.715 1043.99 271.255 1046.51 271.255C1049.48 271.255 1052.22 271.978 1054.8 273.356C1057.35 274.801 1059.48 276.771 1061.12 279.299C1062.12 280.875 1062.83 282.582 1063.32 284.486C1063.8 286.324 1064.03 288.491 1064.03 290.888V291.873H1035.41V291.84ZM1057.32 286.259C1056.54 283.402 1055.25 281.203 1053.35 279.627C1051.48 278.084 1049.25 277.296 1046.64 277.296C1043.93 277.296 1041.6 278.084 1039.67 279.693C1037.67 281.269 1036.31 283.468 1035.57 286.226H1057.32V286.259Z" fill="#919395"/>
<path d="M1075.38 261.078H1069.32V306.843H1075.38V261.078Z" fill="#919395"/>
<path d="M1088.58 302.641V318.006H1082.45V272.24H1088.64V276.508C1090.22 274.867 1091.97 273.619 1093.9 272.798C1095.81 271.945 1097.9 271.518 1100.06 271.518C1105.19 271.518 1109.45 273.225 1112.81 276.705C1116.2 280.152 1117.87 284.486 1117.87 289.706C1117.87 292.102 1117.45 294.401 1116.62 296.6C1115.78 298.767 1114.55 300.704 1113 302.411C1111.29 304.217 1109.39 305.596 1107.39 306.449C1105.32 307.336 1103.03 307.763 1100.45 307.763C1098.13 307.763 1096 307.336 1094.03 306.482C1092.03 305.629 1090.22 304.348 1088.58 302.641ZM1088.39 289.312C1088.39 292.726 1089.51 295.648 1091.77 298.045C1094.03 300.441 1096.74 301.656 1099.84 301.656C1103.03 301.656 1105.77 300.507 1108.07 298.209C1110.36 295.911 1111.49 293.087 1111.49 289.772C1111.49 286.259 1110.36 283.337 1108.1 280.973C1105.81 278.609 1103.06 277.427 1099.77 277.427C1096.77 277.427 1094.16 278.609 1091.84 281.006C1089.58 283.337 1088.39 286.16 1088.39 289.312Z" fill="#919395"/>
<defs>
<linearGradient id="paint0_linear_203_101" x1="190.16" y1="0" x2="190.16" y2="380.32" gradientUnits="userSpaceOnUse">
<stop stop-color="#4F94FC"/>
<stop offset="1" stop-color="#035FE9"/>
</linearGradient>
</defs>
</svg>
