<?xml version="1.0" encoding="UTF-8"?>
<svg xmlns="http://www.w3.org/2000/svg" xmlns:xlink="http://www.w3.org/1999/xlink" viewBox="0 0 500 500">
  <defs>
    <style>
      .cls-1 {
        letter-spacing: 0em;
      }

      .cls-2 {
        fill: url(#Degradado_sin_nombre_248-2);
      }

      .cls-3 {
        fill: url(#Degradado_sin_nombre_339);
        opacity: .64;
      }

      .cls-3, .cls-4 {
        mix-blend-mode: multiply;
      }

      .cls-5 {
        fill: #0a2dc7;
      }

      .cls-6 {
        fill: url(#Degradado_sin_nombre_337-3);
      }

      .cls-7 {
        isolation: isolate;
      }

      .cls-8 {
        fill: url(#Degradado_sin_nombre_248);
      }

      .cls-9 {
        letter-spacing: 0em;
      }

      .cls-10 {
        fill: url(#Degradado_sin_nombre_337);
      }

      .cls-11 {
        font-family: Montserrat-ExtraBold, Montserrat;
        font-size: 39.94px;
        font-weight: 700;
      }

      .cls-12 {
        letter-spacing: -.01em;
      }

      .cls-13 {
        fill: url(#Degradado_sin_nombre_337-2);
      }
    </style>
    <linearGradient id="Degradado_sin_nombre_248" data-name="Degradado sin nombre 248" x1="186.72" y1="146.96" x2="186.72" y2="226.97" gradientUnits="userSpaceOnUse">
      <stop offset="0" stop-color="#3cbbf2"/>
      <stop offset=".55" stop-color="#2274f2"/>
      <stop offset="1" stop-color="#0d37f2"/>
    </linearGradient>
    <linearGradient id="Degradado_sin_nombre_248-2" data-name="Degradado sin nombre 248" x1="276.55" y1="146.96" x2="276.55" y2="226.97" xlink:href="#Degradado_sin_nombre_248"/>
    <linearGradient id="Degradado_sin_nombre_339" data-name="Degradado sin nombre 339" x1="203.32" y1="171.12" x2="115.09" y2="300.47" gradientUnits="userSpaceOnUse">
      <stop offset="0" stop-color="#0a2dc7" stop-opacity="0"/>
      <stop offset=".1" stop-color="#0a2dc7" stop-opacity=".04"/>
      <stop offset=".26" stop-color="#0a2dc7" stop-opacity=".13"/>
      <stop offset=".44" stop-color="#0a2dc7" stop-opacity=".29"/>
      <stop offset=".64" stop-color="#0a2dc7" stop-opacity=".52"/>
      <stop offset=".86" stop-color="#0a2dc7" stop-opacity=".8"/>
      <stop offset="1" stop-color="#0a2dc7"/>
    </linearGradient>
    <linearGradient id="Degradado_sin_nombre_337" data-name="Degradado sin nombre 337" x1="222.94" y1="129.03" x2="117.51" y2="328.67" gradientUnits="userSpaceOnUse">
      <stop offset="0" stop-color="#3fecff"/>
      <stop offset=".12" stop-color="#3bdefe"/>
      <stop offset=".34" stop-color="#31bcfb"/>
      <stop offset=".64" stop-color="#2284f7"/>
      <stop offset="1" stop-color="#0d37f2"/>
      <stop offset="1" stop-color="#0d37f2"/>
    </linearGradient>
    <linearGradient id="Degradado_sin_nombre_337-2" data-name="Degradado sin nombre 337" x1="354.28" y1="318.26" x2="354.28" y2="144.98" xlink:href="#Degradado_sin_nombre_337"/>
    <linearGradient id="Degradado_sin_nombre_337-3" data-name="Degradado sin nombre 337" x1="284.65" y1="237.15" x2="424.54" y2="237.15" xlink:href="#Degradado_sin_nombre_337"/>
  </defs>
  <g class="cls-7">
    <g id="Objects">
      <g>
        <g>
          <text class="cls-11" transform="translate(60.3 385.83)"><tspan x="0" y="0">AL</tspan><tspan class="cls-1" x="55.75" y="0">P</tspan><tspan x="84.78" y="0">HA </tspan><tspan class="cls-12" x="159.98" y="0">S</tspan><tspan class="cls-9" x="185.42" y="0">TERONE</tspan></text>
          <g>
            <g>
              <path class="cls-8" d="M286.35,173.91l17.42,8.06-19.49-53.05-53.05,19.49,14.4,6.66-38.43,82.69-.04.02-8,17.2-.13.27c-5.95,13.26-17.57,22.56-31.87,25.52-13.6,2.81-27.14-.83-37.18-10-.52-.47-1.03-.96-1.58-1.52l-.2-.2c-6-6-10.43-13.47-12.36-21.73-3.86-16.52.92-32.86,12.36-44.3,1.52-1.52,3.15-2.94,4.84-4.23,7.33-5.57,16.18-8.48,25.29-8.48,3.53,0,7.09.44,10.63,1.33,13.3,3.34,24.2,12.39,29.88,24.83l4.73,9.87,22.83-49.35c-11.95-14.08-28.06-24.23-46.51-28.86-25.94-6.52-52.91-1.07-74,14.95-3.3,2.51-6.46,5.27-9.41,8.22-17.29,17.29-26.82,40.29-26.82,64.74s9.52,47.45,26.85,64.78l.18.18c1,1,2.01,1.96,3.03,2.9,20.79,19,48.68,26.59,76.54,20.82,22.01-4.56,39.96-14.44,52.84-31.99,1.33-1.81,2.48-3.74,3.56-5.71l53.68-113.1Z"/>
              <path class="cls-2" d="M310.73,317.1c-11.78-5.83-21.27-15.44-26.95-27.29l-21.27-44.35-25.12,51.36,1.14,2.38c5.98,12.46,18.57,20.39,32.39,20.39h44.83l-5-2.48Z"/>
            </g>
            <g>
              <path class="cls-3" d="M159.45,167.71c-37.79,0-68.42,30.63-68.42,68.42s30.63,68.42,68.42,68.42c27.55,0,47.85-12.52,60.57-39.07l63.73-136.36-52.52,19.29,14.4,6.66-38.43,82.69-.04.02-8,17.2-.13.27c-5.95,13.26-17.57,22.56-31.87,25.52-13.6,2.81-27.14-.83-37.18-10-.52-.47-1.03-.96-1.58-1.52l-.2-.2c-6-6-10.43-13.47-12.36-21.73-3.86-16.52.92-32.86,12.36-44.3,1.52-1.52,3.15-2.94,4.84-4.23,7.33-5.57,16.18-8.48,25.29-8.48,3.53,0,7.09.44,10.63,1.33,13.3,3.34,24.2,12.39,29.88,24.83l4.73,9.87,12.94-27.97c-12.25-18.47-33.23-30.66-57.06-30.66Z"/>
              <path class="cls-10" d="M284.28,128.92l-.53.19-63.73,136.36c-12.71,26.54-33.02,39.07-60.57,39.07-37.79,0-68.42-30.63-68.42-68.42s30.63-68.42,68.42-68.42c23.83,0,44.81,12.18,57.06,30.66l9.89-21.38c-11.95-14.08-28.06-24.23-46.51-28.86-25.94-6.52-52.91-1.07-74,14.95-3.3,2.51-6.46,5.27-9.41,8.22-17.29,17.29-26.82,40.29-26.82,64.74s9.52,47.45,26.85,64.78l.18.18c1,1,2.01,1.96,3.03,2.9,20.79,19,48.68,26.59,76.54,20.82,22.01-4.56,39.96-14.44,52.84-31.99,1.33-1.81,2.48-3.74,3.56-5.71l53.68-113.1,17.42,8.06-19.49-53.05Z"/>
            </g>
            <g class="cls-4">
              <path class="cls-5" d="M270.12,307.72l-19.86-37.24-12.88,26.33,1.14,2.38c5.98,12.46,18.57,20.39,32.39,20.39h11.55c-8.17-4.87-12.33-11.85-12.33-11.85Z"/>
            </g>
          </g>
        </g>
        <path class="cls-13" d="M419.31,240.34c-3.37-5.81-7.9-10.51-13.57-14.11-5.68-3.6-11.89-6.42-18.63-8.47-6.75-2.05-13.53-3.8-20.36-5.28-6.83-1.47-13.04-2.98-18.63-4.54-5.59-1.55-10.12-3.64-13.57-6.26-3.45-2.62-5.18-6.22-5.18-10.8,0-3.6,1.07-6.51,3.21-8.71,2.14-2.21,5.22-3.89,9.25-5.03,4.03-1.14,8.84-1.72,14.44-1.72s10.65.82,14.68,2.45c4.03,1.64,7.07,3.93,9.13,6.87,2.06,2.95,3.09,6.47,3.09,10.55v2.21h37.51v-3.19c0-11.45-2.92-20.82-8.76-28.1-5.84-7.28-13.66-12.64-23.44-16.08-9.79-3.44-20.69-5.15-32.7-5.15s-23.61,1.88-33.81,5.64c-7.77,2.87-12.76,6.26-18.24,11.31l9.4,28.28-24.3-5.41c-.91,3.76-.92,6.67-.92,10.98,0,9.17,1.73,16.73,5.18,22.7,3.46,5.97,7.98,10.76,13.57,14.36,5.59,3.6,11.72,6.5,18.39,8.71,6.66,2.21,13.36,4.05,20.11,5.52,6.74,1.47,12.91,3.03,18.51,4.66,5.59,1.64,10.08,3.76,13.45,6.38,3.37,2.62,5.06,6.14,5.06,10.55,0,3.93-.99,7.24-2.96,9.94-1.97,2.7-5.18,4.71-9.62,6.01-4.44,1.31-10.28,1.96-17.52,1.96-6.75,0-12.3-.94-16.66-2.82-4.36-1.88-7.65-4.5-9.87-7.85-2.22-3.35-3.33-7.24-3.33-11.66v-2.09c0-.57.08-1.19.25-1.84h-38c-.17.98-.25,1.93-.25,2.82v2.58c0,12.44,3.09,22.5,9.25,30.19,6.17,7.69,14.35,13.34,24.55,16.94,10.2,3.6,21.39,5.4,33.56,5.4,13.82,0,26.24-1.88,37.26-5.64,11.02-3.76,19.7-9.73,26.04-17.92,6.33-8.18,9.5-18.98,9.5-32.4,0-8.83-1.69-16.16-5.06-21.97Z"/>
        <path class="cls-6" d="M405.6,197.23c-1.25-4.77-3.87-12.37-9.69-20.14-2.19-2.92-8.03-10.56-17.67-15.58-14.91-7.76-38.2-8.9-53.01,4.75-2.91,2.68-10.97,10.98-12.11,23.96-.14,1.59-1.24,16.64,8.69,26.95,12.18,12.65,25.61,2.23,51.23,14.94,18.73,9.29,24.19,21.14,25.43,24.01,2.35,5.46,3.59,11.58,2.35,17.39-1.62,7.6-6.3,12.39-8.81,14.85-16,15.73-41.71,13.15-50.25,11.78-7.48-1.21-16.72-2.7-25.65-10.02-12.68-10.41-15.47-25.01-16.16-29.59-4.72.18-9.45.36-14.17.54-3.18,12.1.58,25.43,8.42,35.19,7.84,9.75,19.36,16.11,31.47,19.25,14.95,3.88,26.85,3.24,37.28,2.08,13.05-1.44,34.81-3.84,49.11-19.58,4.79-5.26,7.31-10.45,7.98-11.87,5.27-11.22,4.62-21.45,4.27-26.15-.46-6.06-.99-15.19-7.15-23.58-5.16-7.04-13.09-11.51-21.12-14.94-12.44-5.31-25.65-8.6-38.93-11.19-6.66-1.3-13.58-2.53-19.15-6.4-5.57-3.87-9.35-11.27-6.82-17.56,2.42-6.01,9.38-8.75,15.76-9.85,7.86-1.36,16.21-1.19,23.46,2.14,7.24,3.33,13.14,10.24,13.75,18.19,7.16.14,14.32.29,21.48.43Z"/>
      </g>
    </g>
  </g>
</svg>