<svg xmlns="http://www.w3.org/2000/svg" id="Layer_1" data-name="Layer 1" viewBox="0 0 1080 284.13"><defs><style>      .cls-1 {        fill: #bb1f42;      }    </style></defs><path class="cls-1" d="M186.53,214.6l74.45-172.5h31.24l-94.06,207.06h-23.27L81.17,42.1h30.91l74.45,172.5Z"></path><path class="cls-1" d="M303.52,209.28c9.75,9.75,21.49,14.62,35.23,14.62,11.08,0,21.32-3.43,30.74-10.3,9.42-6.87,17.56-15.73,24.43-26.59,11.96-19.28,22.82-34.57,32.57-45.87v-42.54h26.59v18.94c14.4-13.51,31.02-20.61,49.85-21.27,24.81-.88,43.04,6.21,54.67,21.27,11.63,15.07,17.45,34.12,17.45,57.17v75.45h-26.59v-75.45c0-36.11-15.18-53.51-45.53-52.18-16.18.66-30.86,8.14-44.04,22.43-13.19,14.29-26.2,31.63-39.05,52.01-2.66,4.65-4.54,7.76-5.65,9.31-9.31,13.96-20.06,24.98-32.24,33.07-12.19,8.09-26.59,12.13-43.21,12.13-14.18,0-27.2-3.49-39.05-10.47-11.86-6.98-21.27-16.39-28.25-28.25-6.98-11.85-10.47-24.76-10.47-38.72s3.49-27.2,10.47-39.05c6.98-11.85,16.39-21.27,28.25-28.25,11.85-6.98,24.87-10.47,39.05-10.47,18.17,0,33.79,5.54,46.86,16.62,6.2,5.1,15.29,16.4,27.25,33.9l-109.35,62.48ZM374.98,139.82c-9.97-10.41-22.05-15.62-36.23-15.62s-25.76,4.88-35.4,14.62c-9.64,9.75-14.46,21.49-14.46,35.23,0,4.65.55,9.2,1.66,13.63l84.42-47.86ZM453.09,164.75v84.42h-26.59v-44.2c4.65-9.31,13.51-22.71,26.59-40.22Z"></path><path class="cls-1" d="M852.92,134.5c-4.88-9.31-13.08-13.63-24.59-12.96-11.3.66-27.25,13.19-47.86,37.56-4.21,5.32-11.75,14.07-22.6,26.26-7.98,9.09-13.85,15.84-17.62,20.27v43.54h-26.92v-18.95c-14.41,13.52-31.02,20.61-49.85,21.27-23.27.88-41.1-6.09-53.51-20.94-12.41-14.84-18.61-33.68-18.61-56.5v-75.45h26.59v75.45c0,15.29,3.65,27.92,10.97,37.89s18.72,14.74,34.23,14.29c9.3-.22,17.67-2.66,25.09-7.31,7.42-4.65,17.23-13.4,29.41-26.26,7.75-8.19,19.94-22.15,36.56-41.88,2.66-3.32,4.21-5.2,4.65-5.65v-46.2h26.92v18.61c6.2-6.42,12.3-11.41,18.28-14.96,5.98-3.54,13.18-5.54,21.6-5.98,19.5-1.11,34.34,3.99,44.54,15.29l-17.28,22.6ZM713.33,184.36v-85.75h26.92v56.5l-26.92,29.25ZM785.78,165.41v84.09h-26.92v-52.18l26.92-31.91Z"></path><path class="cls-1" d="M932.69,98.61c23.48,0,40.38,4.77,50.69,14.29,10.3,9.53,15.46,25.04,15.46,46.53v89.74h-26.59v-18.61c-.22.22-.45.45-.66.66-5.54,5.98-11.19,10.69-16.95,14.13-5.76,3.44-14.07,5.48-24.93,6.15-19.06,1.33-34.73-1.99-47.03-9.97-12.3-7.98-18.67-19.94-19.11-35.9-.45-16.17,5.2-28.97,16.95-38.39,11.74-9.42,28.03-14.12,48.86-14.12h42.54c0-11.3-3.27-19-9.8-23.1-6.54-4.1-15.9-6.15-28.08-6.15h-50.52v-25.26h49.19ZM929.36,178.04c-11.75,0-20.89,2.16-27.42,6.48-6.54,4.32-9.92,10.14-10.14,17.45-.45,9.31,3.1,15.95,10.64,19.94,7.53,3.99,17.17,5.1,28.92,3.32,7.53-1.11,14.29-3.82,20.27-8.14s12.85-11.35,20.61-21.11v-17.95h-42.87Z"></path></svg>